<svg xmlns="http://www.w3.org/2000/svg" x="0px" y="0px" width="100" height="100" viewBox="0 0 50 50">
<path d="M 15 5 C 14.596 5 14.229172 5.2431875 14.076172 5.6171875 C 13.921172 5.9911875 14.008922 6.4210313 14.294922 6.7070312 L 17.882812 10.294922 L 10.119141 38.433594 L 4.359375 43.232422 C 4.036375 43.501422 3.9165469 43.945797 4.0605469 44.341797 C 4.2035469 44.736797 4.579 45 5 45 L 21 45 C 21.332 45 21.642125 44.834547 21.828125 44.560547 C 22.014125 44.285547 22.052688 43.936906 21.929688 43.628906 L 20.039062 38.904297 L 21.818359 30 L 26.230469 30 L 30.033203 44.257812 C 30.149203 44.694813 30.547 45 31 45 L 41 45 C 41.404 45 41.770781 44.757766 41.925781 44.384766 C 42.080781 44.010766 41.993031 43.580922 41.707031 43.294922 L 37.894531 39.480469 L 35.203125 29.607422 C 40.985125 27.069422 43.8145 19.679562 43.9375 19.351562 C 45.7555 14.502562 44.620609 11.299844 43.349609 9.4648438 C 41.354609 6.5858437 37.668703 5 32.970703 5 L 15 5 z M 17.414062 7 L 32.970703 7 C 36.935703 7 40.118078 8.3125156 41.705078 10.603516 C 43.137078 12.670516 43.2615 15.453437 42.0625 18.648438 C 42.0345 18.723438 39.151594 26.229734 33.683594 28.052734 C 33.181594 28.219734 32.895156 28.751672 33.035156 29.263672 L 36.035156 40.263672 C 36.081156 40.431672 36.169969 40.584031 36.292969 40.707031 L 38.585938 43 L 31.769531 43 L 27.966797 28.742188 C 27.850797 28.305188 27.453 28 27 28 L 21 28 C 20.523 28 20.112531 28.337687 20.019531 28.804688 L 18.019531 38.804688 C 17.981531 38.994687 18.000266 39.191094 18.072266 39.371094 L 19.523438 43 L 7.7617188 43 L 11.640625 39.769531 C 11.796625 39.638531 11.910844 39.462625 11.964844 39.265625 L 19.964844 10.265625 C 20.060844 9.918625 19.962031 9.5479688 19.707031 9.2929688 L 17.414062 7 z M 26.869141 9.8964844 C 26.483096 9.9178027 26.129687 9.9607031 25.820312 10.017578 C 25.446312 10.085578 25.141109 10.360563 25.037109 10.726562 L 21.037109 24.726562 C 20.951109 25.028563 21.013172 25.352516 21.201172 25.603516 C 21.391172 25.853516 21.687 26 22 26 L 33 26 C 33.314 26 33.611781 25.851609 33.800781 25.599609 C 33.979781 25.361609 38.134297 19.729609 35.904297 14.974609 C 33.874297 10.639859 29.571455 9.7472559 26.869141 9.8964844 z M 27.453125 11.890625 C 29.256021 11.892252 32.4925 12.404516 34.09375 15.822266 C 35.52375 18.874266 33.284656 22.758 32.472656 24 L 23.326172 24 L 26.777344 11.914062 C 26.967469 11.900437 27.195568 11.890393 27.453125 11.890625 z"></path>
</svg>